<mxfile host="Electron" agent="Mozilla/5.0 (Windows NT 10.0; Win64; x64) AppleWebKit/537.36 (KHTML, like Gecko) draw.io/24.7.8 Chrome/128.0.6613.36 Electron/32.0.1 Safari/537.36" version="24.7.8">
  <diagram name="Page-1" id="r06qLbsejtE7eU4aNkmz">
    <mxGraphModel dx="757" dy="681" grid="1" gridSize="10" guides="1" tooltips="1" connect="1" arrows="1" fold="1" page="1" pageScale="1" pageWidth="850" pageHeight="1100" math="0" shadow="0">
      <root>
        <mxCell id="0" />
        <mxCell id="1" parent="0" />
        <mxCell id="W0C7c2D7TQZ6Xh-Ik_cl-1" value="&lt;font style=&quot;font-size: 16px;&quot;&gt;1&lt;/font&gt;" style="ellipse;whiteSpace=wrap;html=1;aspect=fixed;" vertex="1" parent="1">
          <mxGeometry x="240" y="140" width="50" height="50" as="geometry" />
        </mxCell>
        <mxCell id="W0C7c2D7TQZ6Xh-Ik_cl-2" value="" style="endArrow=classic;html=1;rounded=0;exitX=0;exitY=1;exitDx=0;exitDy=0;strokeWidth=2;strokeColor=#f50505;" edge="1" parent="1" source="W0C7c2D7TQZ6Xh-Ik_cl-1">
          <mxGeometry width="50" height="50" relative="1" as="geometry">
            <mxPoint x="180" y="290" as="sourcePoint" />
            <mxPoint x="210" y="240" as="targetPoint" />
          </mxGeometry>
        </mxCell>
        <mxCell id="W0C7c2D7TQZ6Xh-Ik_cl-3" value="" style="endArrow=classic;html=1;rounded=0;exitX=1;exitY=1;exitDx=0;exitDy=0;" edge="1" parent="1" source="W0C7c2D7TQZ6Xh-Ik_cl-1">
          <mxGeometry width="50" height="50" relative="1" as="geometry">
            <mxPoint x="257" y="193" as="sourcePoint" />
            <mxPoint x="310" y="240" as="targetPoint" />
          </mxGeometry>
        </mxCell>
        <mxCell id="W0C7c2D7TQZ6Xh-Ik_cl-4" value="&lt;span style=&quot;font-size: 16px;&quot;&gt;2&lt;/span&gt;" style="ellipse;whiteSpace=wrap;html=1;aspect=fixed;" vertex="1" parent="1">
          <mxGeometry x="180" y="240" width="50" height="50" as="geometry" />
        </mxCell>
        <mxCell id="W0C7c2D7TQZ6Xh-Ik_cl-5" value="&lt;span style=&quot;font-size: 16px;&quot;&gt;3&lt;/span&gt;" style="ellipse;whiteSpace=wrap;html=1;aspect=fixed;" vertex="1" parent="1">
          <mxGeometry x="290" y="240" width="50" height="50" as="geometry" />
        </mxCell>
        <mxCell id="W0C7c2D7TQZ6Xh-Ik_cl-9" value="&lt;span style=&quot;font-size: 16px;&quot;&gt;4&lt;/span&gt;" style="ellipse;whiteSpace=wrap;html=1;aspect=fixed;" vertex="1" parent="1">
          <mxGeometry x="120" y="337.32" width="50" height="50" as="geometry" />
        </mxCell>
        <mxCell id="W0C7c2D7TQZ6Xh-Ik_cl-10" value="&lt;span style=&quot;font-size: 16px;&quot;&gt;5&lt;/span&gt;" style="ellipse;whiteSpace=wrap;html=1;aspect=fixed;" vertex="1" parent="1">
          <mxGeometry x="230" y="337.32" width="50" height="50" as="geometry" />
        </mxCell>
        <mxCell id="W0C7c2D7TQZ6Xh-Ik_cl-11" value="" style="endArrow=classic;html=1;rounded=0;exitX=0.807;exitY=0.057;exitDx=0;exitDy=0;entryX=0.3;entryY=0.98;entryDx=0;entryDy=0;entryPerimeter=0;exitPerimeter=0;strokeWidth=2;strokeColor=#7F00FF;" edge="1" parent="1" source="W0C7c2D7TQZ6Xh-Ik_cl-4" target="W0C7c2D7TQZ6Xh-Ik_cl-1">
          <mxGeometry width="50" height="50" relative="1" as="geometry">
            <mxPoint x="160" y="200" as="sourcePoint" />
            <mxPoint x="340" y="140" as="targetPoint" />
          </mxGeometry>
        </mxCell>
        <mxCell id="W0C7c2D7TQZ6Xh-Ik_cl-16" value="" style="endArrow=classic;html=1;rounded=0;exitX=0;exitY=1;exitDx=0;exitDy=0;strokeWidth=2;strokeColor=#f50505;" edge="1" parent="1">
          <mxGeometry width="50" height="50" relative="1" as="geometry">
            <mxPoint x="192" y="283" as="sourcePoint" />
            <mxPoint x="155" y="340" as="targetPoint" />
          </mxGeometry>
        </mxCell>
        <mxCell id="W0C7c2D7TQZ6Xh-Ik_cl-17" value="" style="endArrow=classic;html=1;rounded=0;exitX=0.807;exitY=0.057;exitDx=0;exitDy=0;entryX=0.3;entryY=0.98;entryDx=0;entryDy=0;entryPerimeter=0;exitPerimeter=0;strokeWidth=2;strokeColor=#7F00FF;" edge="1" parent="1">
          <mxGeometry width="50" height="50" relative="1" as="geometry">
            <mxPoint x="165" y="343" as="sourcePoint" />
            <mxPoint x="200" y="289" as="targetPoint" />
          </mxGeometry>
        </mxCell>
        <mxCell id="W0C7c2D7TQZ6Xh-Ik_cl-18" value="" style="endArrow=classic;html=1;rounded=0;exitX=0;exitY=1;exitDx=0;exitDy=0;strokeWidth=2;strokeColor=#f50505;entryX=0;entryY=0;entryDx=0;entryDy=0;" edge="1" parent="1" target="W0C7c2D7TQZ6Xh-Ik_cl-10">
          <mxGeometry width="50" height="50" relative="1" as="geometry">
            <mxPoint x="217" y="290" as="sourcePoint" />
            <mxPoint x="180" y="347" as="targetPoint" />
          </mxGeometry>
        </mxCell>
        <mxCell id="W0C7c2D7TQZ6Xh-Ik_cl-19" value="" style="endArrow=classic;html=1;rounded=0;exitX=0.807;exitY=0.057;exitDx=0;exitDy=0;exitPerimeter=0;strokeWidth=2;strokeColor=#7F00FF;" edge="1" parent="1">
          <mxGeometry width="50" height="50" relative="1" as="geometry">
            <mxPoint x="245" y="337.32" as="sourcePoint" />
            <mxPoint x="225" y="280" as="targetPoint" />
          </mxGeometry>
        </mxCell>
        <mxCell id="W0C7c2D7TQZ6Xh-Ik_cl-20" value="Traversal(Node* root){&lt;div&gt;&amp;lt;&lt;/div&gt;&lt;div&gt;root-&amp;gt;val;&lt;/div&gt;&lt;div&gt;&amp;lt;&lt;/div&gt;&lt;div&gt;int left = Traversal(root-&amp;gt;left);&lt;/div&gt;&lt;div&gt;&amp;lt;&lt;/div&gt;&lt;div&gt;&amp;lt;&lt;/div&gt;&lt;div&gt;int right = Traversal(root-&amp;gt;right);&lt;br&gt;&lt;/div&gt;&lt;div&gt;&amp;lt;&lt;/div&gt;&lt;div&gt;return left+right;&lt;/div&gt;&lt;div&gt;&amp;lt;&lt;/div&gt;&lt;div&gt;}&lt;/div&gt;&lt;div&gt;&lt;b style=&quot;background-color: initial;&quot;&gt;All tree questions can be resolved by answer what I should do in these six position!&lt;/b&gt;&lt;br&gt;&lt;/div&gt;&lt;div&gt;&lt;br&gt;&lt;/div&gt;" style="rounded=0;whiteSpace=wrap;html=1;align=left;verticalAlign=top;" vertex="1" parent="1">
          <mxGeometry x="380" y="210" width="270" height="220" as="geometry" />
        </mxCell>
        <mxCell id="W0C7c2D7TQZ6Xh-Ik_cl-22" value="" style="endArrow=classic;html=1;rounded=0;dashed=1;dashPattern=1 1;entryX=-0.004;entryY=0.132;entryDx=0;entryDy=0;entryPerimeter=0;" edge="1" parent="1" target="W0C7c2D7TQZ6Xh-Ik_cl-20">
          <mxGeometry width="50" height="50" relative="1" as="geometry">
            <mxPoint x="230" y="210" as="sourcePoint" />
            <mxPoint x="280" y="160" as="targetPoint" />
          </mxGeometry>
        </mxCell>
        <mxCell id="W0C7c2D7TQZ6Xh-Ik_cl-23" value="" style="endArrow=classic;html=1;rounded=0;dashed=1;dashPattern=1 1;entryX=0;entryY=0.25;entryDx=0;entryDy=0;" edge="1" parent="1" target="W0C7c2D7TQZ6Xh-Ik_cl-20">
          <mxGeometry width="50" height="50" relative="1" as="geometry">
            <mxPoint x="181" y="300" as="sourcePoint" />
            <mxPoint x="329" y="325" as="targetPoint" />
          </mxGeometry>
        </mxCell>
        <mxCell id="W0C7c2D7TQZ6Xh-Ik_cl-24" value="" style="endArrow=classic;html=1;rounded=0;dashed=1;dashPattern=1 1;entryX=-0.004;entryY=0.373;entryDx=0;entryDy=0;entryPerimeter=0;" edge="1" parent="1" target="W0C7c2D7TQZ6Xh-Ik_cl-20">
          <mxGeometry width="50" height="50" relative="1" as="geometry">
            <mxPoint x="180" y="320" as="sourcePoint" />
            <mxPoint x="382" y="290" as="targetPoint" />
          </mxGeometry>
        </mxCell>
        <mxCell id="W0C7c2D7TQZ6Xh-Ik_cl-25" value="" style="endArrow=classic;html=1;rounded=0;dashed=1;dashPattern=1 1;" edge="1" parent="1">
          <mxGeometry width="50" height="50" relative="1" as="geometry">
            <mxPoint x="230" y="320" as="sourcePoint" />
            <mxPoint x="378" y="310" as="targetPoint" />
          </mxGeometry>
        </mxCell>
        <mxCell id="W0C7c2D7TQZ6Xh-Ik_cl-26" value="" style="endArrow=classic;html=1;rounded=0;dashed=1;dashPattern=1 1;entryX=-0.012;entryY=0.58;entryDx=0;entryDy=0;entryPerimeter=0;" edge="1" parent="1" target="W0C7c2D7TQZ6Xh-Ik_cl-20">
          <mxGeometry width="50" height="50" relative="1" as="geometry">
            <mxPoint x="240" y="330" as="sourcePoint" />
            <mxPoint x="400" y="316" as="targetPoint" />
          </mxGeometry>
        </mxCell>
        <mxCell id="W0C7c2D7TQZ6Xh-Ik_cl-27" value="" style="endArrow=classic;html=1;rounded=0;dashed=1;dashPattern=1 1;entryX=0;entryY=0.727;entryDx=0;entryDy=0;entryPerimeter=0;" edge="1" parent="1" target="W0C7c2D7TQZ6Xh-Ik_cl-20">
          <mxGeometry width="50" height="50" relative="1" as="geometry">
            <mxPoint x="235" y="224" as="sourcePoint" />
            <mxPoint x="388" y="245" as="targetPoint" />
          </mxGeometry>
        </mxCell>
      </root>
    </mxGraphModel>
  </diagram>
</mxfile>
